# xmcd CD database file
#
# Track frame offsets:
#	188
#	14068
#	35308
#	54710
#	68093
#	82193
#	92055
#	112705
#	127373
#	164675
#	177923
#	193360
#	208408
#	222710
#	239395
#	266115
#	279730
#	289683
#
# Disc length: 4030 seconds
#
# Revision: 3
# Processed by: cddbd v1.5.1PL0 Copyright (c) Steve Scherf et al.
# Submitted via: CDex 1.50
#
DISCID=2c0fbc12
DTITLE=Various Artist - The Giants of Jazz
DYEAR=1995
DGENRE=Jazz
TTITLE0=Duke Ellington - Sophisticated Lady
TTITLE1=Lionel Hampton - Cool Train
TTITLE2=Stan Kenton - The Peanut Vendor
TTITLE3=Glen Miller - String Of Pearls
TTITLE4=Les Brown - Stompin' At The Savoy
TTITLE5=Glen Miller - Serenade In Blue
TTITLE6=Pee Wee Russell - Ballin' The Jack
TTITLE7=Lester Young - Lester Leaps In
TTITLE8=Cannonball Adderly - No Greater Love
TTITLE9=Charlie Barnett - Let The Good Times Roll
TTITLE10=Lionel Hampton - Midnight Sun
TTITLE11=Stan Kenton - Eager Beaver
TTITLE12=Pee Wee Russell - St James Infirmary
TTITLE13=Lester Young - These Foolish Things
TTITLE14=Cannonball Adderley - Julie Ann
TTITLE15=Charlie Barnett - Caravan
TTITLE16=Les Brown - I've Got My Love To Keep Me Warm
TTITLE17=Duke Ellington - Take The A Train
EXTD=YEAR: 1995
EXTT0=
EXTT1=
EXTT2=
EXTT3=
EXTT4=
EXTT5=
EXTT6=
EXTT7=
EXTT8=
EXTT9=
EXTT10=
EXTT11=
EXTT12=
EXTT13=
EXTT14=
EXTT15=
EXTT16=
EXTT17=
PLAYORDER=
